# xmcd
#
# Track frame offsets:
#	150
#	15155
#	33408
#	57380
#	72959
#	89576
#	105490
#
# Disc length: 1650 seconds
#
# Revision: 0
# Processed by: cddbd v1.5PL3 Copyright (c) Steve Scherf et al.
# Submitted via: dBpowerAMP V4.0
#
DISCID=51067007
DTITLE=Tara Charles Band - Everything Changes
DYEAR=2001
DGENRE=Blues
TTITLE0=Tricky
TTITLE1=Ode To Bitch B
TTITLE2=Everything Changes
TTITLE3=My Old Girlfriend
TTITLE4=Sittin' Here Thinkin'
TTITLE5=Cancun
TTITLE6=In L.A.
EXTD=
EXTT0=
EXTT1=
EXTT2=
EXTT3=
EXTT4=
EXTT5=
EXTT6=
PLAYORDER=
